<svg width="183" height="145" viewBox="0 0 183 145" fill="none" xmlns="http://www.w3.org/2000/svg">
<path id="Vector 1112" d="M89.1352 142.295L87.0892 141.63L88.4204 139.94C90.7721 136.954 93.7816 131.837 95.1321 126.281C96.479 120.74 96.1349 114.989 92.1589 110.365C91.0686 109.096 88.9395 107.95 85.7199 106.925C82.5529 105.917 78.5696 105.097 74.0202 104.327C70.8392 103.788 67.3758 103.274 63.7539 102.737C57.1187 101.753 49.9518 100.69 43.0157 99.2511C32.2696 97.0224 21.7312 93.8349 14.0004 88.4285C6.17601 82.9567 1.20712 75.1838 1.8062 64.0271C2.95067 42.7133 8.54739 26.0566 16.2072 15.3209C23.8462 4.61444 33.7895 -0.465219 43.4231 2.33246C46.9228 3.34883 54.3465 4.73279 64.1039 6.55183C66.3128 6.96363 68.6413 7.39773 71.0709 7.85491C84.1632 10.3184 100.055 13.4297 115.562 17.2828C131.054 21.1322 146.238 25.7398 157.885 31.2154C163.708 33.9525 168.713 36.9366 172.442 40.1988C176.163 43.4548 178.732 47.0935 179.431 51.1483C181.949 65.7539 180.413 81.9167 176.366 95.4673C174.342 102.248 171.677 108.416 168.542 113.433C165.418 118.433 161.768 122.385 157.731 124.595C151.335 128.098 143.108 128.227 135.631 127.107C128.739 126.075 122.257 123.948 117.983 122.128C114.968 126.118 110.35 131.483 105.441 135.713C102.785 138.002 99.9861 140.009 97.2629 141.271C94.5635 142.522 91.7272 143.137 89.1352 142.295Z" fill="white" stroke="#E3F3FF" stroke-width="3"/>
</svg>
