<svg width="16" height="16" viewBox="0 0 16 16" fill="none" xmlns="http://www.w3.org/2000/svg">
<path d="M1.66663 14.3333L5.36614 12.9104C5.60277 12.8194 5.72108 12.7739 5.83177 12.7145C5.93009 12.6617 6.02383 12.6008 6.11199 12.5324C6.21124 12.4554 6.30088 12.3657 6.48015 12.1865L14 4.66665C14.7364 3.93027 14.7364 2.73636 14 1.99998C13.2636 1.2636 12.0697 1.2636 11.3333 1.99998L3.81348 9.51979C3.63421 9.69906 3.54457 9.7887 3.46755 9.88795C3.39914 9.97611 3.33823 10.0698 3.28545 10.1682C3.22603 10.2789 3.18053 10.3972 3.08951 10.6338L1.66663 14.3333ZM1.66663 14.3333L3.03871 10.766C3.13689 10.5107 3.18598 10.383 3.27019 10.3246C3.34377 10.2735 3.43483 10.2542 3.52282 10.271C3.62351 10.2902 3.72021 10.3869 3.91361 10.5803L5.41968 12.0863C5.61307 12.2797 5.70977 12.3764 5.729 12.4771C5.74581 12.5651 5.72648 12.6562 5.67539 12.7298C5.61692 12.814 5.48929 12.8631 5.23401 12.9613L1.66663 14.3333Z" stroke="#111111" stroke-width="1.3" stroke-linecap="round" stroke-linejoin="round"/>
</svg>
